<?xml version="1.0" encoding="UTF-8" standalone="no"?>
<!DOCTYPE svg PUBLIC "-//W3C//DTD SVG 1.1//EN" "http://www.w3.org/Graphics/SVG/1.1/DTD/svg11.dtd">
<svg width="100%" height="100%" viewBox="0 0 200 200" version="1.1" xmlns="http://www.w3.org/2000/svg" xmlns:xlink="http://www.w3.org/1999/xlink" xml:space="preserve" xmlns:serif="http://www.serif.com/" style="fill-rule:evenodd;clip-rule:evenodd;stroke-linejoin:round;stroke-miterlimit:2;">
    <g transform="matrix(1,0,0,1,3.62743,0.652834)">
        <path d="M96.373,17.29C141.661,17.29 178.43,54.058 178.43,99.347C178.43,144.636 141.661,181.405 96.373,181.405C51.084,181.405 14.315,144.636 14.315,99.347C14.315,54.058 51.084,17.29 96.373,17.29ZM96.373,25.558C137.098,25.558 170.162,58.622 170.162,99.347C170.162,140.073 137.098,173.136 96.373,173.136C55.647,173.136 22.583,140.073 22.583,99.347C22.583,58.622 55.647,25.558 96.373,25.558Z" style="fill:rgb(85,85,85);fill-opacity:0.75;"/>
    </g>
</svg>
