<?xml version="1.0" encoding="UTF-8" standalone="no"?>
<!DOCTYPE svg PUBLIC "-//W3C//DTD SVG 1.1//EN" "http://www.w3.org/Graphics/SVG/1.1/DTD/svg11.dtd">
<svg width="100%" height="100%" viewBox="0 0 200 200" version="1.1" xmlns="http://www.w3.org/2000/svg" xmlns:xlink="http://www.w3.org/1999/xlink" xml:space="preserve" xmlns:serif="http://www.serif.com/" style="fill-rule:evenodd;clip-rule:evenodd;stroke-linecap:round;stroke-linejoin:round;stroke-miterlimit:1.5;">
    <g transform="matrix(1,0,0,1,-0.960585,-0.15595)">
        <rect x="19.077" y="18.273" width="163.767" height="163.767" style="fill:none;stroke:rgb(85,85,85);stroke-width:2px;stroke-dasharray:89.13,14.63,0,0;"/>
    </g>
    <g transform="matrix(0.748934,-0.748934,0.748934,0.748934,-83.3816,26.048)">
        <path d="M72.646,77.477L85.533,100L59.76,100L72.646,77.477Z" style="fill:rgb(85,85,85);"/>
        <path d="M72.646,77.477L85.533,100L59.76,100L72.646,77.477ZM66.272,96.223L79.021,96.223L72.646,85.082L66.272,96.223Z" style="fill:rgb(85,85,85);fill-opacity:0.75;"/>
    </g>
    <g transform="matrix(0.707107,-0.707107,0.707107,0.707107,-76.286,27.3178)">
        <rect x="69.697" y="100" width="6.254" height="52.355" style="fill:rgb(85,85,85);fill-opacity:0.75;"/>
        <rect x="69.697" y="100" width="6.254" height="52.355" style="fill:rgb(85,85,85);fill-opacity:0.75;"/>
    </g>
    <g transform="matrix(-0.748934,-0.748934,-0.748934,0.748934,282.235,26.048)">
        <path d="M72.646,77.477L85.533,100L59.76,100L72.646,77.477Z" style="fill:rgb(85,85,85);"/>
        <path d="M72.646,77.477L85.533,100L59.76,100L72.646,77.477ZM79.021,96.223L66.272,96.223L72.646,85.082L79.021,96.223Z" style="fill:rgb(85,85,85);fill-opacity:0.75;"/>
    </g>
    <g transform="matrix(-0.707107,-0.707107,-0.707107,0.707107,275.14,27.3178)">
        <rect x="69.697" y="100" width="6.254" height="52.355" style="fill:rgb(85,85,85);fill-opacity:0.75;"/>
        <rect x="69.697" y="100" width="6.254" height="52.355" style="fill:rgb(85,85,85);fill-opacity:0.75;"/>
    </g>
    <g transform="matrix(0.748934,0.748934,0.748934,-0.748934,-82.8084,174.182)">
        <path d="M72.646,77.477L85.533,100L59.76,100L72.646,77.477Z" style="fill:rgb(85,85,85);"/>
        <path d="M72.646,77.477L85.533,100L59.76,100L72.646,77.477ZM72.646,85.082L79.021,96.223L66.272,96.223L72.646,85.082Z" style="fill:rgb(85,85,85);fill-opacity:0.75;"/>
    </g>
    <g transform="matrix(0.707107,0.707107,0.707107,-0.707107,-75.7128,172.912)">
        <rect x="69.697" y="100" width="6.254" height="52.355" style="fill:rgb(85,85,85);fill-opacity:0.75;"/>
        <rect x="69.697" y="100" width="6.254" height="52.355" style="fill:rgb(85,85,85);fill-opacity:0.75;"/>
    </g>
    <g transform="matrix(-0.748934,0.748934,-0.748934,-0.748934,282.808,174.182)">
        <path d="M72.646,77.477L85.533,100L59.76,100L72.646,77.477Z" style="fill:rgb(85,85,85);"/>
        <path d="M72.646,77.477L85.533,100L59.76,100L72.646,77.477ZM79.021,96.223L72.646,85.082L66.272,96.223L79.021,96.223Z" style="fill:rgb(85,85,85);fill-opacity:0.75;"/>
    </g>
    <g transform="matrix(-0.707107,0.707107,-0.707107,-0.707107,275.713,172.912)">
        <rect x="69.697" y="100" width="6.254" height="52.355" style="fill:rgb(85,85,85);fill-opacity:0.75;"/>
        <rect x="69.697" y="100" width="6.254" height="52.355" style="fill:rgb(85,85,85);fill-opacity:0.75;"/>
    </g>
</svg>
